<?xml version="1.0" encoding="UTF-8" standalone="no"?><svg xmlns="http://www.w3.org/2000/svg" xmlns:xlink="http://www.w3.org/1999/xlink" contentScriptType="application/ecmascript" contentStyleType="text/css" height="608px" preserveAspectRatio="none" style="width:468px;height:608px;" version="1.1" viewBox="0 0 468 608" width="468px" zoomAndPan="magnify"><defs><filter height="300%" id="f1g2b5vih9tpio" width="300%" x="-1" y="-1"><feGaussianBlur result="blurOut" stdDeviation="2.0"/><feColorMatrix in="blurOut" result="blurOut2" type="matrix" values="0 0 0 0 0 0 0 0 0 0 0 0 0 0 0 0 0 0 .4 0"/><feOffset dx="4.0" dy="4.0" in="blurOut2" result="blurOut3"/><feBlend in="SourceGraphic" in2="blurOut3" mode="normal"/></filter></defs><g><!--MD5=[7283a9eed84464550b6d5ebf39c68b05]
class Mastermind--><rect fill="#FEFECE" filter="url(#f1g2b5vih9tpio)" height="124.8281" id="Mastermind" style="stroke: #A80036; stroke-width: 1.5;" width="132" x="11.5" y="8"/><ellipse cx="38.65" cy="24" fill="#ADD1B2" rx="11" ry="11" style="stroke: #A80036; stroke-width: 1.0;"/><path d="M40.9938,19.6719 L41.1656,19.75 C41.3844,19.4375 41.5875,19.3438 41.8844,19.3438 C42.1813,19.3438 42.4625,19.4844 42.6188,19.75 C42.7125,19.9063 42.7281,20.0313 42.7281,20.4688 L42.7281,21.8906 C42.7281,22.3125 42.6969,22.5 42.5875,22.6563 C42.4156,22.875 42.15,23.0156 41.8844,23.0156 C41.6656,23.0156 41.4313,22.9063 41.2906,22.7656 C41.15,22.6406 41.1188,22.5156 41.0563,22.1094 C40.9625,21.7031 40.7906,21.4844 40.3063,21.2031 C39.8375,20.9531 39.2281,20.7969 38.65,20.7969 C36.9156,20.7969 35.6656,22.1094 35.6656,23.8906 L35.6656,24.9844 C35.6656,26.6875 36.9625,27.7813 39.0094,27.7813 C39.775,27.7813 40.4625,27.6563 40.8844,27.3906 C41.0719,27.2969 41.0719,27.2969 41.525,26.8125 C41.7125,26.625 41.9156,26.5469 42.1344,26.5469 C42.6031,26.5469 42.9938,26.9375 42.9938,27.3906 C42.9938,27.7813 42.6656,28.2344 42.0875,28.6406 C41.3375,29.1875 40.1813,29.4844 38.9625,29.4844 C36.0719,29.4844 33.9625,27.5938 33.9625,25.0156 L33.9625,23.8906 C33.9625,21.1719 35.9625,19.0938 38.5875,19.0938 C39.4625,19.0938 40.0563,19.2344 40.9938,19.6719 Z "/><text fill="#000000" font-family="sans-serif" font-size="12" lengthAdjust="spacingAndGlyphs" textLength="73" x="55.35" y="28.1543">Mastermind</text><line style="stroke: #A80036; stroke-width: 1.5;" x1="12.5" x2="142.5" y1="40" y2="40"/><text fill="#000000" font-family="sans-serif" font-size="11" lengthAdjust="spacingAndGlyphs" textLength="114" x="17.5" y="54.2104">historicoPropuestas</text><line style="stroke: #A80036; stroke-width: 1.5;" x1="12.5" x2="142.5" y1="60.8047" y2="60.8047"/><text fill="#000000" font-family="sans-serif" font-size="11" lengthAdjust="spacingAndGlyphs" textLength="73" x="17.5" y="75.0151">iniciarJuego()</text><text fill="#000000" font-family="sans-serif" font-size="11" lengthAdjust="spacingAndGlyphs" textLength="77" x="17.5" y="87.8198">hayGanador()</text><text fill="#000000" font-family="sans-serif" font-size="11" lengthAdjust="spacingAndGlyphs" textLength="54" x="17.5" y="100.6245">reiniciar()</text><text fill="#000000" font-family="sans-serif" font-size="11" lengthAdjust="spacingAndGlyphs" textLength="101" x="17.5" y="113.4292">imprimeIntentos()</text><text fill="#000000" font-family="sans-serif" font-size="11" lengthAdjust="spacingAndGlyphs" textLength="120" x="17.5" y="126.2339">imprimePropuestas()</text><!--MD5=[8e8a1d76ef5b76890ab5652abdacd56c]
class Resultado--><rect fill="#FEFECE" filter="url(#f1g2b5vih9tpio)" height="73.6094" id="Resultado" style="stroke: #A80036; stroke-width: 1.5;" width="123" x="104" y="524"/><ellipse cx="131.6" cy="540" fill="#ADD1B2" rx="11" ry="11" style="stroke: #A80036; stroke-width: 1.0;"/><path d="M133.9438,535.6719 L134.1156,535.75 C134.3344,535.4375 134.5375,535.3438 134.8344,535.3438 C135.1313,535.3438 135.4125,535.4844 135.5688,535.75 C135.6625,535.9063 135.6781,536.0313 135.6781,536.4688 L135.6781,537.8906 C135.6781,538.3125 135.6469,538.5 135.5375,538.6563 C135.3656,538.875 135.1,539.0156 134.8344,539.0156 C134.6156,539.0156 134.3813,538.9063 134.2406,538.7656 C134.1,538.6406 134.0688,538.5156 134.0063,538.1094 C133.9125,537.7031 133.7406,537.4844 133.2563,537.2031 C132.7875,536.9531 132.1781,536.7969 131.6,536.7969 C129.8656,536.7969 128.6156,538.1094 128.6156,539.8906 L128.6156,540.9844 C128.6156,542.6875 129.9125,543.7813 131.9594,543.7813 C132.725,543.7813 133.4125,543.6563 133.8344,543.3906 C134.0219,543.2969 134.0219,543.2969 134.475,542.8125 C134.6625,542.625 134.8656,542.5469 135.0844,542.5469 C135.5531,542.5469 135.9438,542.9375 135.9438,543.3906 C135.9438,543.7813 135.6156,544.2344 135.0375,544.6406 C134.2875,545.1875 133.1313,545.4844 131.9125,545.4844 C129.0219,545.4844 126.9125,543.5938 126.9125,541.0156 L126.9125,539.8906 C126.9125,537.1719 128.9125,535.0938 131.5375,535.0938 C132.4125,535.0938 133.0063,535.2344 133.9438,535.6719 Z "/><text fill="#000000" font-family="sans-serif" font-size="12" lengthAdjust="spacingAndGlyphs" textLength="63" x="148.4" y="544.1543">Resultado</text><line style="stroke: #A80036; stroke-width: 1.5;" x1="105" x2="226" y1="556" y2="556"/><line style="stroke: #A80036; stroke-width: 1.5;" x1="105" x2="226" y1="564" y2="564"/><text fill="#000000" font-family="sans-serif" font-size="11" lengthAdjust="spacingAndGlyphs" textLength="111" x="110" y="578.2104">imprimeResultado()</text><text fill="#000000" font-family="sans-serif" font-size="11" lengthAdjust="spacingAndGlyphs" textLength="71" x="110" y="591.0151">esGanador()</text><!--MD5=[ea53d3f5b1e48c301511a45344d81808]
class Combinacion--><rect fill="#FEFECE" filter="url(#f1g2b5vih9tpio)" height="60.8047" id="Combinacion" style="stroke: #A80036; stroke-width: 1.5;" width="112" x="284.5" y="40"/><ellipse cx="299.5" cy="56" fill="#A9DCDF" rx="11" ry="11" style="stroke: #A80036; stroke-width: 1.0;"/><path d="M301.0781,57.8125 L297.0313,57.8125 L296.6406,58.7969 L297.0313,58.7969 C297.4844,58.7969 297.625,58.8281 297.7969,58.9531 C298.0156,59.125 298.1406,59.375 298.1406,59.6563 C298.1406,59.9375 298,60.2344 297.7344,60.375 C297.6094,60.4688 297.3906,60.5 297.0313,60.5 L294.7656,60.5 C294.0156,60.5 293.6406,60.2188 293.6406,59.6563 C293.6406,59.3594 293.7969,59.0781 294.0469,58.9219 C294.2031,58.8125 294.3594,58.7969 294.7813,58.7969 L297.4219,52.2813 L296.3438,52.2813 C295.9063,52.2813 295.7344,52.25 295.5625,52.1406 C295.3438,51.9688 295.2031,51.7188 295.2031,51.4375 C295.2031,51.1563 295.3594,50.875 295.6094,50.7031 C295.7656,50.6094 295.8906,50.5938 296.3438,50.5938 L300.0156,50.5938 L303.4063,58.7969 C303.875,58.7969 304.0313,58.8281 304.2031,58.9688 C304.4219,59.125 304.5625,59.375 304.5625,59.6563 C304.5625,59.9375 304.4063,60.2344 304.1563,60.375 C304.0156,60.4688 303.7969,60.5 303.4375,60.5 L301.0781,60.5 C300.6563,60.5 300.4531,60.4531 300.3125,60.3281 C300.0938,60.1719 299.9531,59.9219 299.9531,59.6563 C299.9531,59.3594 300.1094,59.0781 300.3594,58.9219 C300.5156,58.8125 300.625,58.7969 301.0781,58.7969 L301.4688,58.7969 Z M300.375,56.1094 L299.0469,52.8438 L297.7031,56.1094 Z "/><text fill="#000000" font-family="sans-serif" font-size="12" font-style="italic" lengthAdjust="spacingAndGlyphs" textLength="80" x="313.5" y="60.1543">Combinacion</text><line style="stroke: #A80036; stroke-width: 1.5;" x1="285.5" x2="395.5" y1="72" y2="72"/><text fill="#000000" font-family="sans-serif" font-size="11" lengthAdjust="spacingAndGlyphs" textLength="35" x="290.5" y="86.2104">vector</text><line style="stroke: #A80036; stroke-width: 1.5;" x1="285.5" x2="395.5" y1="92.8047" y2="92.8047"/><!--MD5=[18eee71c88ab61f27581b8cbdd3ef5ee]
class Color--><rect fill="#FEFECE" filter="url(#f1g2b5vih9tpio)" height="48" id="Color" style="stroke: #A80036; stroke-width: 1.5;" width="64" x="393.5" y="212"/><ellipse cx="408.5" cy="228" fill="#EB937F" rx="11" ry="11" style="stroke: #A80036; stroke-width: 1.0;"/><path d="M406.7969,228.875 L406.7969,231.2969 L411.1563,231.2969 L411.1563,230.4219 C411.1563,229.9375 411.1875,229.7969 411.2969,229.6406 C411.4688,229.3906 411.7344,229.2813 412,229.2813 C412.2813,229.2813 412.5625,229.4375 412.7344,229.6875 C412.8125,229.8438 412.8438,229.9844 412.8438,230.4219 L412.8438,233 L404.8438,233 C404.4531,233 404.2188,232.9531 404.0781,232.8281 C403.8594,232.6719 403.7188,232.4219 403.7188,232.1563 C403.7188,231.8594 403.875,231.5938 404.125,231.4219 C404.2813,231.3125 404.4375,231.2969 404.8438,231.2969 L405.0938,231.2969 L405.0938,224.7813 L404.8438,224.7813 C404.4219,224.7813 404.2344,224.75 404.0781,224.6406 C403.8594,224.4688 403.7188,224.2188 403.7188,223.9375 C403.7188,223.6563 403.875,223.3594 404.125,223.2031 C404.2813,223.1094 404.4063,223.0938 404.8438,223.0938 L412.4688,223.0938 L412.4688,225.6406 C412.4688,226.1094 412.4375,226.25 412.3281,226.4219 C412.1563,226.6406 411.8906,226.7813 411.625,226.7813 C411.3438,226.7813 411.0625,226.625 410.8906,226.375 C410.8125,226.2188 410.7813,226.0469 410.7813,225.6406 L410.7813,224.7813 L406.7969,224.7813 L406.7969,227.1875 L408.25,227.1875 L408.25,227.0625 C408.25,226.6094 408.2813,226.4531 408.3906,226.2813 C408.5625,226.0625 408.8281,225.9219 409.0781,225.9219 C409.5313,225.9219 409.8438,226.2344 409.9063,226.7031 C409.9219,226.8594 409.9219,226.9063 409.9219,227.0625 L409.9219,228.9844 C409.9219,229.4375 409.8906,229.5938 409.7656,229.75 C409.6094,229.9688 409.3438,230.1094 409.0938,230.1094 C408.7969,230.1094 408.5156,229.9531 408.3594,229.7031 C408.2813,229.5469 408.25,229.3906 408.25,228.9844 L408.25,228.875 Z "/><text fill="#000000" font-family="sans-serif" font-size="12" lengthAdjust="spacingAndGlyphs" textLength="32" x="422.5" y="232.1543">Color</text><line style="stroke: #A80036; stroke-width: 1.5;" x1="394.5" x2="456.5" y1="244" y2="244"/><line style="stroke: #A80036; stroke-width: 1.5;" x1="394.5" x2="456.5" y1="252" y2="252"/><!--MD5=[aa99bcc7d858f5655433111ae4c647db]
class CombinacionSecreta--><rect fill="#FEFECE" filter="url(#f1g2b5vih9tpio)" height="86.4141" id="CombinacionSecreta" style="stroke: #A80036; stroke-width: 1.5;" width="244" x="43.5" y="193"/><ellipse cx="96.75" cy="209" fill="#ADD1B2" rx="11" ry="11" style="stroke: #A80036; stroke-width: 1.0;"/><path d="M99.0938,204.6719 L99.2656,204.75 C99.4844,204.4375 99.6875,204.3438 99.9844,204.3438 C100.2813,204.3438 100.5625,204.4844 100.7188,204.75 C100.8125,204.9063 100.8281,205.0313 100.8281,205.4688 L100.8281,206.8906 C100.8281,207.3125 100.7969,207.5 100.6875,207.6563 C100.5156,207.875 100.25,208.0156 99.9844,208.0156 C99.7656,208.0156 99.5313,207.9063 99.3906,207.7656 C99.25,207.6406 99.2188,207.5156 99.1563,207.1094 C99.0625,206.7031 98.8906,206.4844 98.4063,206.2031 C97.9375,205.9531 97.3281,205.7969 96.75,205.7969 C95.0156,205.7969 93.7656,207.1094 93.7656,208.8906 L93.7656,209.9844 C93.7656,211.6875 95.0625,212.7813 97.1094,212.7813 C97.875,212.7813 98.5625,212.6563 98.9844,212.3906 C99.1719,212.2969 99.1719,212.2969 99.625,211.8125 C99.8125,211.625 100.0156,211.5469 100.2344,211.5469 C100.7031,211.5469 101.0938,211.9375 101.0938,212.3906 C101.0938,212.7813 100.7656,213.2344 100.1875,213.6406 C99.4375,214.1875 98.2813,214.4844 97.0625,214.4844 C94.1719,214.4844 92.0625,212.5938 92.0625,210.0156 L92.0625,208.8906 C92.0625,206.1719 94.0625,204.0938 96.6875,204.0938 C97.5625,204.0938 98.1563,204.2344 99.0938,204.6719 Z "/><text fill="#000000" font-family="sans-serif" font-size="12" lengthAdjust="spacingAndGlyphs" textLength="129" x="117.25" y="213.1543">CombinacionSecreta</text><line style="stroke: #A80036; stroke-width: 1.5;" x1="44.5" x2="286.5" y1="225" y2="225"/><line style="stroke: #A80036; stroke-width: 1.5;" x1="44.5" x2="286.5" y1="233" y2="233"/><text fill="#000000" font-family="sans-serif" font-size="11" lengthAdjust="spacingAndGlyphs" textLength="92" x="49.5" y="247.2104">nuevaAleatoria()</text><text fill="#000000" font-family="sans-serif" font-size="11" lengthAdjust="spacingAndGlyphs" textLength="232" x="49.5" y="260.0151">evaluaResultado(CombinacionPropuesta)</text><text fill="#000000" font-family="sans-serif" font-size="11" lengthAdjust="spacingAndGlyphs" textLength="99" x="49.5" y="272.8198">imprimeSecreto()</text><!--MD5=[cc76179ed13d7332889cfe94415efb3e]
class CombinacionPropuesta--><rect fill="#FEFECE" filter="url(#f1g2b5vih9tpio)" height="124.8281" id="CombinacionPropuesta" style="stroke: #A80036; stroke-width: 1.5;" width="177" x="6" y="339"/><ellipse cx="21" cy="355" fill="#ADD1B2" rx="11" ry="11" style="stroke: #A80036; stroke-width: 1.0;"/><path d="M23.3438,350.6719 L23.5156,350.75 C23.7344,350.4375 23.9375,350.3438 24.2344,350.3438 C24.5313,350.3438 24.8125,350.4844 24.9688,350.75 C25.0625,350.9063 25.0781,351.0313 25.0781,351.4688 L25.0781,352.8906 C25.0781,353.3125 25.0469,353.5 24.9375,353.6563 C24.7656,353.875 24.5,354.0156 24.2344,354.0156 C24.0156,354.0156 23.7813,353.9063 23.6406,353.7656 C23.5,353.6406 23.4688,353.5156 23.4063,353.1094 C23.3125,352.7031 23.1406,352.4844 22.6563,352.2031 C22.1875,351.9531 21.5781,351.7969 21,351.7969 C19.2656,351.7969 18.0156,353.1094 18.0156,354.8906 L18.0156,355.9844 C18.0156,357.6875 19.3125,358.7813 21.3594,358.7813 C22.125,358.7813 22.8125,358.6563 23.2344,358.3906 C23.4219,358.2969 23.4219,358.2969 23.875,357.8125 C24.0625,357.625 24.2656,357.5469 24.4844,357.5469 C24.9531,357.5469 25.3438,357.9375 25.3438,358.3906 C25.3438,358.7813 25.0156,359.2344 24.4375,359.6406 C23.6875,360.1875 22.5313,360.4844 21.3125,360.4844 C18.4219,360.4844 16.3125,358.5938 16.3125,356.0156 L16.3125,354.8906 C16.3125,352.1719 18.3125,350.0938 20.9375,350.0938 C21.8125,350.0938 22.4063,350.2344 23.3438,350.6719 Z "/><text fill="#000000" font-family="sans-serif" font-size="12" lengthAdjust="spacingAndGlyphs" textLength="145" x="35" y="359.1543">CombinacionPropuesta</text><line style="stroke: #A80036; stroke-width: 1.5;" x1="7" x2="182" y1="371" y2="371"/><line style="stroke: #A80036; stroke-width: 1.5;" x1="7" x2="182" y1="379" y2="379"/><text fill="#000000" font-family="sans-serif" font-size="11" lengthAdjust="spacingAndGlyphs" textLength="113" x="12" y="393.2104">leeEntradaUsuario()</text><text fill="#000000" font-family="sans-serif" font-size="11" lengthAdjust="spacingAndGlyphs" textLength="86" x="12" y="406.0151">contiene(Color)</text><text fill="#000000" font-family="sans-serif" font-size="11" lengthAdjust="spacingAndGlyphs" textLength="141" x="12" y="418.8198">contiene(Color, posicion)</text><text fill="#000000" font-family="sans-serif" font-size="11" lengthAdjust="spacingAndGlyphs" textLength="78" x="12" y="431.6245">esGanadora()</text><text fill="#000000" font-family="sans-serif" font-size="11" lengthAdjust="spacingAndGlyphs" textLength="82" x="12" y="444.4292">set(Resultado)</text><text fill="#000000" font-family="sans-serif" font-size="11" lengthAdjust="spacingAndGlyphs" textLength="113" x="12" y="457.2339">imprimePropuesta()</text><!--MD5=[76ba2b51362f1e99fc71f04e411c0348]
link Combinacion to Color--><path d="M361.4287,111.7559 C361.4287,111.7559 394.161,174.719 407.427,200.235 " fill="none" id="Combinacion-Color" style="stroke: #A80036; stroke-width: 1.0;"/><polygon fill="#A80036" points="413.514,211.944,412.9112,202.1136,411.2074,207.5078,405.8132,205.8041,413.514,211.944" style="stroke: #A80036; stroke-width: 1.0;"/><line style="stroke: #A80036; stroke-width: 1.0;" x1="411.2074" x2="407.517" y1="207.5078" y2="200.41"/><polygon fill="#A80036" points="355.893,101.109,355.1119,108.2777,361.4287,111.7559,362.2098,104.5872,355.893,101.109" style="stroke: #A80036; stroke-width: 1.0;"/><!--MD5=[31c71cb8d5c28146fbf60026b364e0d7]
reverse link Combinacion to CombinacionPropuesta--><path d="M343.25,121.477 C343.253,166.522 336.855,232.611 304.5,279 C275.223,320.975 226.433,350.475 183.247,369.886 " fill="none" id="Combinacion&lt;-CombinacionPropuesta" style="stroke: #A80036; stroke-width: 1.0;"/><polygon fill="none" points="336.247,121.377,342.82,101.233,350.243,121.08,336.247,121.377" style="stroke: #A80036; stroke-width: 1.0;"/><!--MD5=[36307fdf32d9956adf79efb790b6ae24]
reverse link Combinacion to CombinacionSecreta--><path d="M294.054,114.894 C268.282,138.972 236.366,168.791 210.782,192.694 " fill="none" id="Combinacion&lt;-CombinacionSecreta" style="stroke: #A80036; stroke-width: 1.0;"/><polygon fill="none" points="289.416,109.647,308.809,101.109,298.973,119.877,289.416,109.647" style="stroke: #A80036; stroke-width: 1.0;"/><!--MD5=[ec4d35ec034a6961737f9c6b1be67d63]
link CombinacionPropuesta to Resultado--><path d="M127.2888,475.2357 C127.2888,475.2357 138.653,500.4451 143.705,511.6511 " fill="none" id="CombinacionPropuesta-Resultado" style="stroke: #A80036; stroke-width: 1.0;"/><polygon fill="#A80036" points="149.195,523.8308,149.1428,513.9821,147.1401,519.2726,141.8496,517.2699,149.195,523.8308" style="stroke: #A80036; stroke-width: 1.0;"/><line style="stroke: #A80036; stroke-width: 1.0;" x1="147.1401" x2="143.853" y1="519.2726" y2="511.9793"/><polygon fill="#A80036" points="122.357,464.296,121.1763,471.4098,127.2888,475.2357,128.4695,468.1219,122.357,464.296" style="stroke: #A80036; stroke-width: 1.0;"/><!--MD5=[417690f206c1456218a5054e65e5b13b]
link CombinacionSecreta to Resultado--><path d="M183.547,279.361 C190.299,297.392 197.143,318.871 200.5,339 C209.64,393.799 210.162,409.291 200.5,464 C197.201,482.683 190.55,502.5097 183.923,519.2644 " fill="none" id="CombinacionSecreta-&gt;Resultado" style="stroke: #A80036; stroke-width: 1.0; stroke-dasharray: 7.0,7.0;"/><polygon fill="#A80036" points="182.058,523.9051,189.1266,517.0469,183.9232,519.266,181.7041,514.0626,182.058,523.9051" style="stroke: #A80036; stroke-width: 1.0;"/><!--MD5=[0bec290786c9210e0c4744f8fa894203]
link CombinacionSecreta to CombinacionPropuesta--><path d="M147.216,279.105 C139.943,295.853 131.399,315.529 123.331,334.107 " fill="none" id="CombinacionSecreta-&gt;CombinacionPropuesta" style="stroke: #A80036; stroke-width: 1.0; stroke-dasharray: 7.0,7.0;"/><polygon fill="#A80036" points="121.291,338.804,128.5449,332.1421,123.2826,334.2178,121.207,328.9555,121.291,338.804" style="stroke: #A80036; stroke-width: 1.0;"/><!--MD5=[4049dcbf2f49c5764076a814383283af]
link Mastermind to CombinacionSecreta--><path d="M110.769,133.312 C120.557,151.497 131.099,171.084 140.293,188.166 " fill="none" id="Mastermind-&gt;CombinacionSecreta" style="stroke: #A80036; stroke-width: 1.0;"/><polygon fill="#A80036" points="142.849,192.915,142.1053,183.0943,140.4791,188.5123,135.061,186.8861,142.849,192.915" style="stroke: #A80036; stroke-width: 1.0;"/><!--MD5=[bc88cffdc5ad576d6ec9770501c5495b]
link Mastermind to CombinacionPropuesta--><path d="M45.3567,133.303 C37.2201,151.982 29.6239,172.883 25.5,193 C17.8241,230.444 15.7388,242.045 25.5,279 C30.5257,298.027 39.2953,317.196 48.9313,334.506 " fill="none" id="Mastermind-&gt;CombinacionPropuesta" style="stroke: #A80036; stroke-width: 1.0;"/><polygon fill="#A80036" points="51.398,338.866,50.4463,329.0632,48.9353,334.5146,43.484,333.0036,51.398,338.866" style="stroke: #A80036; stroke-width: 1.0;"/><!--MD5=[32196db206b49876b7d79f7d90cf5fb6]
@startuml
class Mastermind{
historicoPropuestas
iniciarJuego()
hayGanador()
reiniciar()
imprimeIntentos()
imprimePropuestas()
}

class Resultado{
imprimeResultado()
esGanador()
}

abstract Combinacion{
vector
}
enum Color{
}

class CombinacionSecreta{
nuevaAleatoria()
evaluaResultado(CombinacionPropuesta)
imprimeSecreto()
}

class CombinacionPropuesta{
leeEntradaUsuario()
contiene(Color)
contiene(Color, posicion)
esGanadora()
set(Resultado)
imprimePropuesta()
}




Combinacion *- -> Color
Combinacion <|- - CombinacionPropuesta
Combinacion <|- - CombinacionSecreta
CombinacionPropuesta *- -> Resultado
CombinacionSecreta ..> Resultado
CombinacionSecreta ..> CombinacionPropuesta
Mastermind - -> CombinacionSecreta
Mastermind - -> CombinacionPropuesta
@enduml

PlantUML version 1.2019.11(Sun Sep 22 10:02:15 UTC 2019)
(GPL source distribution)
Java Runtime: Java(TM) SE Runtime Environment
JVM: Java HotSpot(TM) 64-Bit Server VM
Java Version: 1.7.0_25-b15
Operating System: Linux
Default Encoding: UTF-8
Language: en
Country: US
--></g></svg>